<?xml version="1.0" standalone="no"?><!DOCTYPE svg PUBLIC "-//W3C//DTD SVG 1.1//EN" "http://www.w3.org/Graphics/SVG/1.1/DTD/svg11.dtd"><svg class="icon" height="512" viewBox="0 0 1024 1024" version="1.1" xmlns="http://www.w3.org/2000/svg"><path d="M810.975279 416.371012c0 0 65.787332 29.034267 61.187571 178.994674l47.426149 47.367821c0 0 50.476625-116.207675 32.119535-215.712947 0 0-1.512447-93.342921-168.288844-217.225393 0 0-82.631976 9.130961-76.491115-76.520791l-65.783239-65.815985L521.795087 186.809663l58.134025 58.192354c0 0 143.81443 6.043646 93.337805 123.882472l-215.712947 217.287815-41.319058-6.111185L169.912831 826.382177c0 0-16.844643 59.646472 26.00835 96.361675 0 0 27.526937 33.694403 85.689614 32.125675l241.72232-250.919796 4.598738-41.319058 246.292406-244.747213C774.226307 417.883459 788.017404 396.467707 810.975279 416.371012L810.975279 416.371012zM344.31286 443.835528l102.752222 104.276948 105.587803-105.554034L446.814372 335.251483C532.49887 139.380444 286.177811 62.915935 286.177811 62.915935c-45.884027-12.278651-36.718273 22.928199-36.718273 22.928199 96.394421 79.549777 81.089853 105.560174 81.089853 105.560174-12.217253 91.823312-91.795683 127.030162-91.795683 127.030162-79.545684 33.634028-145.326876-78.031191-145.326876-78.031191-26.01449-4.599761-22.955828 24.495904-22.955828 24.495904C134.738727 547.939537 344.31286 443.835528 344.31286 443.835528L344.31286 443.835528zM556.195571 667.643849 833.896314 957.950701l119.351272-119.346155L663.268192 560.565089 556.195571 667.643849 556.195571 667.643849zM833.896314 781.981944M833.896314 781.981944" /></svg>